<?xml version="1.0" encoding="UTF-8"?>
<svg id="Layer_1" xmlns="http://www.w3.org/2000/svg" version="1.1" viewBox="27 43 113 113">
  <!-- Generator: Adobe Illustrator 29.1.0, SVG Export Plug-In . SVG Version: 2.1.0 Build 142)  -->
  <defs>
    <style>
      .st0 {
        fill: #1d2428;
      }
    </style>
  </defs>
  <g>
    <path class="st0" d="M32.2,48.8c0-.7.5-1.2,1.2-1.2h9c.7,0,1.2.5,1.2,1.2v100.7c0,.7-.5,1.2-1.2,1.2h-9c-.7,0-1.2-.5-1.2-1.2V48.8Z"/>
    <path class="st0" d="M55.1,48.8c0-.7.5-1.2,1.2-1.2h9c.7,0,1.2.5,1.2,1.2v100.7c0,.7-.5,1.2-1.2,1.2h-9c-.7,0-1.2-.5-1.2-1.2,0,0,0-100.7,0-100.7Z"/>
    <path class="st0" d="M78,48.8c0-.7.5-1.2,1.2-1.2h9c.7,0,1.2.5,1.2,1.2v100.7c0,.7-.5,1.2-1.2,1.2h-9c-.7,0-1.2-.5-1.2-1.2V48.8Z"/>
    <path class="st0" d="M100.9,48.8c0-.7.5-1.2,1.2-1.2h9c.7,0,1.2.5,1.2,1.2v100.7c0,.7-.5,1.2-1.2,1.2h-9c-.7,0-1.2-.5-1.2-1.2V48.8Z"/>
    <path class="st0" d="M123.8,88.9c0-.7.5-1.2,1.2-1.2h9c.7,0,1.2.5,1.2,1.2v20.5c0,.7-.5,1.2-1.2,1.2h-9c-.7,0-1.2-.5-1.2-1.2v-20.5Z"/>
  </g>
</svg>